<?xml version="1.0" encoding="utf-8"?>
<!-- Generator: Adobe Illustrator 19.2.1, SVG Export Plug-In . SVG Version: 6.00 Build 0)  -->
<svg version="1.1" id="Ebene_1" xmlns="http://www.w3.org/2000/svg" xmlns:xlink="http://www.w3.org/1999/xlink" x="0px" y="0px"
	 viewBox="0 0 140.2 115.1" style="enable-background:new 0 0 140.2 115.1;" xml:space="preserve">
<style type="text/css">
	.st0{fill:#FF00AE;}
</style>
<title>shark</title>
<path class="st0" d="M124.8,60.9c-0.2,3.4,2.4,6.3,5.8,6.4c0.1,0,0.2,0,0.3,0c3.5,0.2,6.4-2.5,6.6-5.9c0,0,0,0,0-0.1
	c0.2-3.5-2.5-6.5-6-6.7c-3.5-0.2-6.5,2.5-6.7,6C124.8,60.8,124.8,60.8,124.8,60.9z M103.2,60.8c-0.1-3.5-3-6.3-6.5-6.2c0,0,0,0,0,0
	c-3.5,0.2-6.2,3.1-6.2,6.5c0.1,3.5,3.1,6.2,6.6,6.1c0,0,0,0,0,0c3.4,0,6.2-2.7,6.2-6.1C103.3,61,103.3,60.9,103.2,60.8z M0.4,17.4
	h49.7V0c4.1,0.7,7.8,1,11.2,2C69.9,4.6,77,9.7,84,15.1c2.2,1.6,4.7,2.6,7.4,3c9.4,1.3,18.7,3.2,27.1,7.8
	c9.4,4.9,16.3,13.4,19.2,23.6c3.3,11.1,3.4,22.9,0.2,34c-4.3,15.2-15.5,23.8-30.3,27.4c-21.7,5.5-44.5,5.6-66.2,0.2
	c-26.2-6.6-39.8-23.5-41-50.2C-0.2,47,0.1,33.1,0,19.3C0.1,18.6,0.2,18,0.4,17.4z"/>
</svg>
